<?xml version="1.0" standalone="no"?>
<!DOCTYPE svg PUBLIC "-//W3C//DTD SVG 20010904//EN"
 "http://www.w3.org/TR/2001/REC-SVG-20010904/DTD/svg10.dtd">
<svg version="1.0" xmlns="http://www.w3.org/2000/svg"
 width="420.000000pt" height="323.000000pt" viewBox="0 0 420.000000 323.000000"
 preserveAspectRatio="xMidYMid meet">

<g transform="translate(0.000000,323.000000) scale(0.100000,-0.100000)"
fill="#fcba03" stroke="none">
<path d="M515 3071 c-2 -4 12 -5 31 -3 32 4 97 -22 169 -67 18 -11 27 -9 73
20 29 18 73 37 98 44 40 10 17 12 -160 12 -114 0 -208 -3 -211 -6z"/>
<path d="M1158 3073 c7 -3 16 -2 19 1 4 3 -2 6 -13 5 -11 0 -14 -3 -6 -6z"/>
<path d="M1318 3073 c7 -3 16 -2 19 1 4 3 -2 6 -13 5 -11 0 -14 -3 -6 -6z"/>
<path d="M1478 3073 c7 -3 16 -2 19 1 4 3 -2 6 -13 5 -11 0 -14 -3 -6 -6z"/>
<path d="M1312 3035 c0 -16 2 -22 5 -12 2 9 2 23 0 30 -3 6 -5 -1 -5 -18z"/>
<path d="M1472 3040 c0 -14 2 -19 5 -12 2 6 2 18 0 25 -3 6 -5 1 -5 -13z"/>
<path d="M1580 3049 c0 -5 5 -7 10 -4 6 3 10 8 10 11 0 2 -4 4 -10 4 -5 0 -10
-5 -10 -11z"/>
<path d="M1153 2965 c0 -27 2 -38 4 -22 2 15 2 37 0 50 -2 12 -4 0 -4 -28z"/>
<path d="M698 2982 c-10 -2 -18 -10 -18 -19 0 -13 -3 -13 -15 -3 -12 10 -15 9
-15 -5 0 -9 9 -19 19 -22 12 -3 17 -11 14 -20 -3 -9 -8 -11 -12 -5 -3 6 -6
-38 -5 -96 0 -59 -3 -117 -8 -130 -7 -20 -5 -22 10 -18 11 4 19 1 19 -6 0 -7
4 -20 7 -29 6 -13 2 -16 -19 -11 -25 4 -26 3 -24 -42 2 -33 6 -45 16 -42 7 3
15 1 18 -4 4 -6 -3 -10 -14 -10 -18 0 -20 -8 -23 -87 -5 -135 0 -173 23 -173
10 0 19 -5 19 -11 0 -6 -8 -9 -18 -7 -14 4 -18 -1 -20 -24 -2 -21 1 -28 10
-23 7 4 5 0 -5 -9 -16 -12 -18 -23 -12 -62 7 -56 13 -67 29 -61 7 3 19 1 27
-4 11 -6 6 -11 -18 -21 -33 -12 -48 -43 -37 -72 3 -9 12 -16 20 -16 8 0 14 -6
14 -14 0 -9 -7 -12 -18 -9 -13 3 -19 -1 -19 -12 0 -9 6 -14 14 -11 7 3 13 1
13 -4 0 -6 7 -10 15 -10 13 0 14 -4 5 -20 -7 -14 -7 -20 0 -20 5 0 10 -5 10
-11 0 -5 -5 -7 -12 -3 -7 4 -8 3 -4 -4 15 -25 35 0 33 43 -1 24 -5 41 -10 38
-17 -10 -18 29 -1 42 18 14 18 14 -1 16 -11 1 -25 1 -32 0 -7 -1 -9 7 -6 19 3
13 14 20 28 20 22 0 23 4 23 65 0 41 -5 65 -12 65 -6 0 -4 5 4 10 13 8 12 10
-3 10 -17 0 -17 1 -3 16 19 18 21 74 4 74 -10 0 -10 2 0 9 9 5 13 28 12 67 -1
32 -1 64 0 69 1 6 1 15 0 20 -5 22 -1 245 4 254 4 5 0 12 -6 14 -10 4 -10 6 0
6 16 1 16 41 0 41 -9 0 -9 3 0 12 7 7 12 17 12 23 0 5 -5 3 -10 -5 -8 -13 -10
-13 -10 2 0 9 6 19 13 21 9 4 8 6 -2 6 -10 1 -10 5 -3 14 15 18 17 79 4 104
-14 25 -16 45 -3 25 6 -11 9 -9 13 5 7 25 -12 50 -34 45z m7 -21 c3 -5 2 -12
-3 -15 -5 -3 -9 1 -9 9 0 17 3 19 12 6z m-25 -861 c0 -5 -5 -10 -11 -10 -5 0
-7 5 -4 10 3 6 8 10 11 10 2 0 4 -4 4 -10z"/>
<path d="M1311 2894 c0 -11 3 -14 6 -6 3 7 2 16 -1 19 -3 4 -6 -2 -5 -13z"/>
<path d="M1286 2791 c-3 -5 -15 -7 -26 -4 -11 3 -20 1 -20 -4 0 -5 -15 -9 -33
-10 -18 0 -55 -13 -82 -29 -28 -15 -59 -32 -70 -38 -38 -21 -64 -53 -52 -65 9
-9 6 -13 -11 -18 -12 -3 -25 -16 -28 -29 -3 -13 -10 -24 -16 -24 -5 0 -7 -4
-4 -9 3 -5 0 -11 -7 -14 -28 -11 -57 -221 -37 -270 5 -12 9 -18 9 -14 1 4 10
3 21 -3 14 -8 20 -8 20 0 0 6 4 9 8 6 4 -2 8 43 9 102 0 105 1 108 42 190 60
115 144 181 263 203 35 6 75 15 91 20 16 5 27 4 27 -2 0 -5 18 -9 41 -9 28 0
39 4 37 13 -6 15 -173 23 -182 8z"/>
<path d="M2167 2793 c-4 -3 -32 -5 -63 -4 -31 1 -62 -4 -70 -10 -11 -9 -14 -8
-14 1 0 9 -11 11 -42 6 -24 -4 -59 -7 -78 -6 -35 1 -38 -8 -4 -14 29 -6 94
-39 94 -48 0 -4 -8 -5 -17 -2 -17 5 -17 5 0 -9 15 -12 15 -16 3 -20 -8 -3 -17
1 -20 9 -3 9 -10 13 -15 10 -11 -7 -2 -46 10 -46 19 0 59 24 56 34 -10 29 89
80 133 69 11 -3 20 -1 20 5 0 5 7 9 16 8 9 0 19 5 21 12 5 12 -19 17 -30 5z"/>
<path d="M1486 2775 c4 -8 10 -12 15 -9 14 8 10 24 -6 24 -9 0 -12 -6 -9 -15z"/>
<path d="M2212 2775 c-7 -8 -8 -15 -3 -15 5 0 13 5 16 10 9 15 25 12 25 -5 0
-8 4 -15 9 -15 5 0 7 9 4 20 -6 23 -32 26 -51 5z"/>
<path d="M2822 2770 c-19 -12 -31 -16 -28 -11 4 5 1 13 -5 16 -14 9 -52 -32
-43 -47 4 -6 3 -8 -3 -5 -10 6 -29 -37 -25 -55 1 -4 -5 -5 -13 -2 -9 4 -15 0
-15 -10 0 -19 -1 -19 38 -5 16 5 33 18 36 27 17 43 32 61 56 66 65 13 86 20
92 30 5 7 8 7 8 -2 0 -10 19 -13 79 -11 43 1 82 0 87 -3 5 -3 24 -9 43 -13 26
-6 32 -4 27 6 -4 8 -1 6 7 -4 14 -17 15 -16 20 3 3 11 1 18 -3 15 -5 -3 -12 0
-15 6 -4 5 -22 9 -40 7 -19 -1 -37 1 -41 5 -4 4 -57 7 -118 7 -94 0 -116 -3
-144 -20z"/>
<path d="M2683 2772 c-28 -4 -30 -18 -5 -24 22 -6 60 17 40 24 -7 2 -23 2 -35
0z"/>
<path d="M1560 2760 c0 -6 -4 -8 -10 -5 -5 3 -10 2 -10 -4 0 -6 14 -18 31 -27
26 -13 33 -13 40 -3 9 15 0 36 -10 23 -11 -16 -34 -16 -28 0 4 9 2 18 -3 21
-6 4 -10 1 -10 -5z"/>
<path d="M2280 2766 c0 -9 30 -14 35 -6 4 6 -3 10 -14 10 -12 0 -21 -2 -21 -4z"/>
<path d="M2608 2763 c7 -3 16 -2 19 1 4 3 -2 6 -13 5 -11 0 -14 -3 -6 -6z"/>
<path d="M3220 2731 c-7 -14 -7 -22 2 -27 6 -4 8 -3 4 4 -3 6 2 12 13 14 16 2
17 5 5 16 -11 10 -15 8 -24 -7z"/>
<path d="M2305 2730 c3 -5 10 -10 16 -10 5 0 9 5 9 10 0 6 -7 10 -16 10 -8 0
-12 -4 -9 -10z"/>
<path d="M1646 2683 c-3 -8 1 -10 11 -6 11 4 14 2 9 -5 -4 -7 -3 -12 2 -12 5
0 12 8 14 18 6 21 -28 26 -36 5z"/>
<path d="M1990 2661 c0 -5 -10 -11 -22 -13 -21 -3 -23 -9 -26 -65 -3 -63 -3
-63 24 -61 17 2 29 11 35 26 12 32 11 122 -1 122 -5 0 -10 -4 -10 -9z"/>
<path d="M2723 2627 c-26 -13 -37 -59 -17 -70 16 -9 19 -37 4 -37 -5 0 -10 -9
-10 -20 0 -11 7 -20 15 -20 8 0 15 -4 15 -10 0 -5 -5 -10 -12 -10 -6 0 -9 -3
-6 -6 4 -3 16 -1 27 6 26 13 28 55 4 70 -17 11 -17 11 0 6 16 -5 18 0 16 49
-1 30 -5 54 -8 54 -3 -1 -16 -6 -28 -12z"/>
<path d="M2350 2555 c-7 -9 -10 -18 -6 -22 3 -3 6 -1 6 5 0 7 5 12 12 12 6 0
3 -9 -7 -20 -14 -15 -16 -23 -7 -32 7 -7 8 -17 1 -30 -5 -10 -6 -18 -2 -18 4
0 3 -4 -2 -8 -6 -4 -21 -23 -35 -44 -34 -51 -74 -71 -145 -74 -77 -3 -75 -2
-75 -12 0 -5 41 -9 91 -10 50 -1 95 -4 100 -7 4 -3 15 7 23 23 8 16 22 35 32
43 24 19 63 112 71 165 5 42 5 44 -19 44 -14 0 -31 -7 -38 -15z"/>
<path d="M1707 2496 c-16 -12 -16 -14 -1 -20 29 -11 44 -6 44 14 0 23 -17 25
-43 6z"/>
<path d="M1968 2503 c-10 -3 -19 -17 -22 -36 -6 -38 -6 -169 0 -179 2 -3 17 0
33 8 l28 14 -2 92 c-3 123 1 111 -37 101z"/>
<path d="M1727 2448 c-10 -5 -15 -13 -12 -18 3 -5 1 -11 -5 -15 -20 -12 -9
-21 21 -17 29 4 30 3 17 -17 -7 -12 -14 -17 -16 -11 -6 17 -22 11 -22 -9 0
-16 5 -17 33 -12 32 7 36 18 28 87 -2 17 -25 23 -44 12z"/>
<path d="M2723 2413 c-12 -2 -24 -11 -27 -20 -4 -10 -2 -14 8 -10 8 3 19 0 25
-7 13 -16 4 -27 -15 -19 -10 4 -13 -1 -10 -18 3 -18 9 -24 27 -22 22 1 22 0
-3 -10 -16 -6 -29 -16 -29 -21 -6 -45 -5 -56 2 -56 4 0 4 -13 -1 -30 -7 -25
-6 -30 8 -30 12 0 13 -3 5 -8 -17 -11 -29 -72 -14 -72 8 0 9 -5 1 -19 -5 -11
-10 -31 -10 -46 0 -14 -7 -40 -16 -57 -16 -31 -28 -33 -93 -12 -18 5 -23 4
-19 -7 6 -17 64 -31 103 -24 43 8 78 38 82 71 8 63 13 424 6 423 -5 -1 -18 -4
-30 -6z"/>
<path d="M3405 2393 c-66 -8 -73 -12 -67 -35 3 -14 2 -19 -6 -14 -17 10 -15
-9 2 -23 20 -17 52 -8 86 24 28 26 40 57 23 54 -5 -1 -21 -4 -38 -6z"/>
<path d="M1740 2330 c0 -6 -7 -10 -15 -10 -8 0 -15 -7 -15 -15 0 -8 8 -15 18
-15 16 -1 16 -1 0 -11 -23 -13 -24 -49 -2 -49 12 0 11 -5 -7 -19 l-24 -20 37
2 c41 2 44 9 50 101 3 33 0 39 -19 42 -13 2 -23 -1 -23 -6z"/>
<path d="M3325 2280 c3 -5 17 -10 30 -10 13 0 27 5 30 10 4 6 -8 10 -30 10
-22 0 -34 -4 -30 -10z"/>
<path d="M1980 2273 c-25 -9 -40 -35 -40 -69 0 -18 6 -35 13 -37 10 -4 10 -6
0 -6 -20 -1 -15 -31 5 -31 16 -1 16 -1 0 -14 -10 -7 -18 -18 -18 -24 0 -6 8
-9 18 -6 15 5 15 4 -2 -10 -10 -8 -17 -23 -14 -33 8 -31 -36 -97 -73 -110 -30
-10 -31 -12 -9 -12 30 -1 97 29 126 55 19 18 21 29 20 161 -1 79 -3 143 -6
142 -3 0 -12 -3 -20 -6z m10 -212 c0 -5 -7 -12 -16 -15 -14 -5 -15 -4 -4 9 14
17 20 19 20 6z"/>
<path d="M921 2233 c-1 -16 5 -23 17 -23 10 0 13 3 6 8 -6 4 -14 14 -17 22 -4
10 -6 8 -6 -7z"/>
<path d="M950 2236 c0 -2 7 -6 15 -10 8 -3 15 -1 15 4 0 6 -7 10 -15 10 -8 0
-15 -2 -15 -4z"/>
<path d="M1671 2109 c-37 -77 -94 -130 -163 -151 -21 -6 -38 -14 -38 -17 0 -4
-25 -5 -56 -3 -42 2 -55 -1 -52 -10 11 -32 166 -8 240 38 61 38 88 64 107 104
9 19 25 48 35 63 21 31 21 32 -14 40 -23 5 -28 -1 -59 -64z"/>
<path d="M3277 2120 c-36 -77 -104 -132 -177 -145 -17 -3 -35 -6 -38 -7 -7 -2
-178 10 -254 17 -27 2 -34 -1 -35 -15 -2 -24 35 -29 222 -26 137 2 154 4 200
26 62 31 113 82 144 143 12 27 21 50 20 51 -2 2 -15 6 -29 9 -23 5 -28 0 -53
-53z"/>
<path d="M690 1992 c0 -5 7 -9 15 -9 8 0 15 4 15 9 0 4 -7 8 -15 8 -8 0 -15
-4 -15 -8z"/>
<path d="M2530 1965 c0 -8 2 -15 4 -15 2 0 6 7 10 15 3 8 1 15 -4 15 -6 0 -10
-7 -10 -15z"/>
<path d="M1316 1941 c-4 -5 -2 -12 3 -15 5 -4 12 -2 15 3 4 5 2 12 -3 15 -5 4
-12 2 -15 -3z"/>
<path d="M2148 1933 c7 -3 16 -2 19 1 4 3 -2 6 -13 5 -11 0 -14 -3 -6 -6z"/>
<path d="M654 1811 c4 -6 -1 -26 -11 -44 l-19 -32 30 1 c17 0 41 3 53 8 18 6
21 11 13 31 -5 12 -6 26 -3 29 4 3 0 6 -8 6 -8 0 -25 3 -38 7 -17 4 -22 3 -17
-6z"/>
<path d="M1280 1764 c-6 -14 -10 -28 -10 -31 0 -19 -89 -134 -110 -141 -72
-26 -92 -29 -133 -25 -47 6 -91 -10 -84 -30 4 -14 80 -10 85 4 2 5 8 9 13 9 6
0 7 -5 3 -12 -10 -16 146 -2 162 15 12 13 88 177 99 215 9 31 -13 28 -25 -4z"/>
<path d="M1598 1723 c7 -3 16 -2 19 1 4 3 -2 6 -13 5 -11 0 -14 -3 -6 -6z"/>
<path d="M697 1712 c-5 -7 -12 -10 -16 -8 -4 3 -21 -8 -36 -24 -21 -22 -24
-30 -13 -30 9 0 22 -8 29 -17 12 -15 12 -16 -4 -10 -13 5 -24 -4 -44 -35 -17
-24 -43 -48 -68 -59 l-40 -18 45 6 c48 7 142 46 158 66 5 7 13 39 16 72 5 39
4 55 -3 46 -7 -11 -10 -10 -13 5 -2 14 -6 16 -11 6z"/>
<path d="M1882 1709 c2 -7 10 -15 17 -17 8 -3 12 1 9 9 -2 7 -10 15 -17 17 -8
3 -12 -1 -9 -9z"/>
<path d="M1963 1713 c9 -2 23 -2 30 0 6 3 -1 5 -18 5 -16 0 -22 -2 -12 -5z"/>
<path d="M2046 1711 c9 -9 34 -9 34 -1 0 5 -9 8 -20 7 -10 -1 -17 -3 -14 -6z"/>
<path d="M2250 1709 c0 -5 11 -9 25 -9 33 0 33 15 0 16 -14 1 -25 -2 -25 -7z"/>
<path d="M2316 1712 c-8 -13 49 -21 88 -11 l31 7 -35 1 c-19 1 -45 4 -56 7
-12 3 -24 1 -28 -4z"/>
<path d="M2458 1713 c6 -2 18 -2 25 0 6 3 1 5 -13 5 -14 0 -19 -2 -12 -5z"/>
<path d="M2594 1702 c12 -13 17 -12 37 2 23 15 22 16 -15 14 -32 -1 -35 -3
-22 -16z"/>
<path d="M2855 1710 c-4 -6 -11 -8 -16 -5 -5 4 -9 1 -9 -4 0 -15 13 -14 36 4
10 8 14 15 7 15 -6 0 -15 -5 -18 -10z"/>
<path d="M2990 1711 c0 -13 25 -20 39 -11 10 5 8 9 -4 14 -23 8 -35 8 -35 -3z"/>
<path d="M3126 1712 c-3 -5 8 -6 25 -4 16 2 29 6 29 8 0 8 -49 4 -54 -4z"/>
<path d="M1510 1688 c-44 -25 -56 -37 -65 -65 -8 -27 13 -32 22 -5 3 9 24 34
47 54 46 42 46 45 -4 16z"/>
<path d="M1887 1616 c-4 -10 -5 -21 -2 -24 9 -9 17 6 13 25 -3 17 -4 17 -11
-1z"/>
<path d="M2355 1610 c-3 -5 -1 -10 4 -10 6 0 11 5 11 10 0 6 -2 10 -4 10 -3 0
-8 -4 -11 -10z"/>
<path d="M1440 1575 c0 -8 5 -15 10 -15 6 0 10 7 10 15 0 8 -4 15 -10 15 -5 0
-10 -7 -10 -15z"/>
<path d="M1757 1583 c-3 -5 -1 -17 4 -28 6 -17 7 -16 6 8 -1 28 -3 32 -10 20z"/>
<path d="M813 1559 c1 -12 14 -18 50 -23 28 -3 54 -3 58 0 18 11 8 34 -13 35
-13 0 -40 2 -60 3 -29 2 -36 -1 -35 -15z"/>
<path d="M1880 1570 c0 -5 5 -10 11 -10 5 0 7 5 4 10 -3 6 -8 10 -11 10 -2 0
-4 -4 -4 -10z"/>
<path d="M2054 1570 c-5 -5 -34 -11 -64 -13 l-55 -3 62 -2 c35 -1 65 3 68 9 9
14 1 21 -11 9z"/>
<path d="M2825 1570 c-3 -5 -1 -10 4 -10 6 0 11 5 11 10 0 6 -2 10 -4 10 -3 0
-8 -4 -11 -10z"/>
<path d="M2595 1560 c3 -5 8 -10 11 -10 2 0 4 5 4 10 0 6 -5 10 -11 10 -5 0
-7 -4 -4 -10z"/>
<path d="M2718 1563 c7 -3 16 -2 19 1 4 3 -2 6 -13 5 -11 0 -14 -3 -6 -6z"/>
<path d="M3160 1559 c0 -5 5 -7 10 -4 6 3 10 8 10 11 0 2 -4 4 -10 4 -5 0 -10
-5 -10 -11z"/>
<path d="M1752 1501 c-6 -16 -9 -31 -6 -33 2 -3 -10 -17 -26 -33 -21 -20 -45
-31 -78 -36 l-47 -6 49 -2 c44 -1 52 3 87 38 29 28 39 47 39 70 0 39 -5 39
-18 2z"/>
<path d="M1887 1524 c-4 -4 -7 -14 -7 -23 0 -11 3 -12 11 -4 6 6 10 16 7 23
-2 6 -7 8 -11 4z"/>
<path d="M2596 1471 c-4 -7 -5 -15 -2 -18 9 -9 19 4 14 18 -4 11 -6 11 -12 0z"/>
<path d="M2350 1440 c0 -5 5 -10 11 -10 5 0 7 5 4 10 -3 6 -8 10 -11 10 -2 0
-4 -4 -4 -10z"/>
<path d="M1865 1414 l-16 -25 25 16 c26 17 34 35 17 35 -5 0 -16 -12 -26 -26z"/>
<path d="M2816 1424 c-4 -9 -4 -19 -2 -21 8 -8 26 8 26 23 0 19 -16 18 -24 -2z"/>
<path d="M2580 1409 c0 -5 5 -7 10 -4 6 3 10 8 10 11 0 2 -4 4 -10 4 -5 0 -10
-5 -10 -11z"/>
<path d="M2975 1400 c-3 -6 1 -7 9 -4 18 7 21 14 7 14 -6 0 -13 -4 -16 -10z"/>
<path d="M3153 1403 c9 -2 23 -2 30 0 6 3 -1 5 -18 5 -16 0 -22 -2 -12 -5z"/>
<path d="M395 1384 c-5 -2 -28 -5 -50 -6 -44 -4 -53 -24 -22 -47 16 -12 21
-12 29 0 8 11 9 11 5 -3 -10 -29 23 -29 60 0 36 26 40 27 168 27 102 0 131 3
128 12 -3 7 -9 10 -14 7 -5 -3 -9 1 -9 8 0 10 -2 10 -9 -1 -6 -9 -11 -10 -15
-2 -9 14 -86 11 -86 -3 0 -6 -5 -4 -10 4 -8 12 -13 13 -30 2 -12 -7 -20 -8
-20 -2 0 5 -13 10 -30 10 -16 0 -30 -5 -30 -11 0 -6 -9 -8 -21 -4 -16 5 -20 4
-15 -6 4 -8 2 -7 -6 2 -7 9 -17 14 -23 13z"/>
<path d="M3486 1383 c-48 -5 -143 -64 -156 -97 -10 -27 -30 -44 -30 -25 0 7
-6 4 -14 -6 -11 -16 -11 -21 0 -33 8 -7 14 -20 14 -28 0 -8 5 -14 11 -14 6 0
9 7 5 15 -3 9 0 15 10 15 8 0 21 13 27 29 7 17 33 46 57 65 36 28 56 36 107
42 35 3 63 11 63 16 0 5 6 6 13 1 6 -4 17 -8 22 -9 6 -1 30 -7 55 -14 25 -7
52 -13 60 -15 15 -3 60 32 60 46 0 10 -66 5 -94 -7 -14 -5 -17 -4 -12 4 10 16
-36 16 -52 0 -9 -9 -12 -9 -12 3 0 10 -11 15 -36 16 -27 1 -34 -2 -30 -14 4
-9 1 -13 -6 -10 -7 2 -12 10 -10 16 1 6 -1 10 -5 9 -5 -1 -26 -3 -47 -5z m184
-23 c0 -5 -4 -10 -10 -10 -5 0 -10 5 -10 10 0 6 5 10 10 10 6 0 10 -4 10 -10z
m-173 -6 c-3 -3 -12 -4 -19 -1 -8 3 -5 6 6 6 11 1 17 -2 13 -5z"/>
<path d="M183 1363 c9 -2 25 -2 35 0 9 3 1 5 -18 5 -19 0 -27 -2 -17 -5z"/>
<path d="M270 1360 c0 -5 5 -10 11 -10 5 0 7 5 4 10 -3 6 -8 10 -11 10 -2 0
-4 -4 -4 -10z"/>
<path d="M743 1349 c13 -22 47 -31 62 -19 7 6 15 7 19 3 4 -4 4 1 0 11 -4 11
-14 16 -25 13 -11 -3 -21 -1 -24 3 -3 5 -14 8 -24 7 -15 -1 -17 -4 -8 -18z"/>
<path d="M360 1261 c-8 -9 -17 -26 -18 -36 -2 -11 -8 -24 -12 -29 -5 -5 -6 1
-3 13 4 16 2 20 -9 16 -16 -6 -13 -55 3 -55 5 0 9 -9 9 -20 0 -11 -6 -20 -12
-20 -10 0 -10 -2 -1 -8 9 -6 10 -17 3 -41 -7 -25 -6 -30 3 -23 7 5 21 11 31
13 18 4 18 5 3 20 -9 9 -13 19 -10 23 3 3 12 -2 19 -12 11 -14 13 -14 14 -2 0
8 3 26 7 39 4 17 3 22 -5 17 -8 -4 -10 -2 -6 7 3 8 -2 17 -10 20 -9 4 -16 12
-16 19 0 10 2 10 9 -1 5 -7 13 -11 19 -7 12 7 12 46 1 46 -4 0 -5 9 -2 20 6
24 3 24 -17 1z"/>
<path d="M2745 1229 c-21 -5 -43 -15 -47 -22 -6 -9 -8 -8 -8 3 -1 11 -6 8 -20
-9 -18 -21 -25 -20 -21 1 0 4 -6 5 -14 2 -8 -4 -15 -10 -15 -16 0 -5 -4 -7 -9
-4 -4 3 -24 -10 -44 -29 -32 -31 -33 -35 -16 -40 13 -5 31 3 54 24 21 18 64
39 108 52 39 12 73 26 75 30 2 5 12 4 23 -1 14 -8 19 -7 19 2 0 16 -32 19 -85
7z"/>
<path d="M2850 1225 c0 -11 9 -15 30 -13 17 1 30 7 30 13 0 5 5 3 10 -5 9 -13
10 -13 10 0 0 10 3 11 8 4 10 -16 88 -28 97 -15 3 6 -6 16 -21 21 -21 8 -29 8
-36 -2 -6 -10 -8 -10 -8 0 0 8 -19 12 -60 12 -47 0 -60 -3 -60 -15z"/>
<path d="M1460 1219 c0 -5 5 -7 10 -4 6 3 10 8 10 11 0 2 -4 4 -10 4 -5 0 -10
-5 -10 -11z"/>
<path d="M1666 1223 c-2 -3 -32 -4 -67 -4 -67 0 -68 -9 -3 -27 22 -7 49 -22
60 -34 18 -20 18 -21 1 -15 -22 8 -67 -1 -67 -14 0 -5 17 -9 38 -9 31 0 41 6
59 33 36 53 37 64 9 69 -14 3 -28 3 -30 1z"/>
<path d="M2190 1223 c0 -5 22 -17 48 -29 l47 -20 48 20 c26 11 47 22 47 26 0
10 -95 -2 -102 -14 -5 -8 -8 -7 -8 3 0 7 -6 11 -15 7 -8 -3 -15 -1 -15 4 0 6
-11 10 -25 10 -14 0 -25 -3 -25 -7z"/>
<path d="M3103 1218 c1 -7 -9 -14 -22 -16 -17 -3 -21 0 -15 10 6 9 3 9 -10 -2
-17 -13 -17 -14 1 -21 30 -12 38 -10 69 16 l29 25 -27 0 c-17 0 -27 -5 -25
-12z"/>
<path d="M3262 1193 c5 -25 28 -28 28 -4 0 12 -6 21 -16 21 -9 0 -14 -7 -12
-17z"/>
<path d="M890 1191 c-23 -6 -25 -12 -25 -64 0 -31 4 -57 9 -57 6 0 1 -7 -10
-15 -17 -13 -15 -13 16 -1 19 8 34 17 33 20 -2 3 6 15 17 26 12 12 18 25 14
31 -3 6 -14 -3 -25 -20 -10 -17 -24 -31 -29 -31 -6 0 -8 5 -5 10 3 6 2 10 -3
10 -6 0 -8 9 -5 20 3 11 12 20 20 20 8 0 11 -4 8 -10 -3 -5 -1 -10 4 -10 6 0
11 7 11 16 0 12 7 15 25 12 18 -4 26 0 31 14 8 26 0 32 -19 13 -22 -22 -40
-19 -32 5 7 21 4 22 -35 11z"/>
<path d="M3250 1159 c0 -5 9 -9 20 -9 11 0 20 2 20 4 0 2 -9 6 -20 9 -11 3
-20 1 -20 -4z"/>
<path d="M1180 1126 c0 -13 27 -31 41 -28 4 1 15 -8 24 -18 23 -26 27 -25 77
10 24 17 63 34 88 40 40 8 38 9 -25 5 -85 -6 -88 -6 -121 -4 -15 1 -30 -5 -35
-12 -7 -11 -9 -10 -9 4 0 10 -8 17 -20 17 -11 0 -20 -6 -20 -14z"/>
<path d="M3250 1115 c0 -8 3 -14 8 -14 18 3 33 -2 28 -9 -2 -4 -1 -14 5 -22 7
-12 9 -10 9 8 0 12 5 22 10 22 6 0 10 6 10 13 0 8 -14 14 -35 15 -26 2 -35 -1
-35 -13z"/>
<path d="M1606 1088 c3 -4 11 -5 19 -1 21 7 19 12 -4 10 -11 0 -18 -5 -15 -9z"/>
<path d="M2490 1094 c-15 -4 -80 -103 -80 -121 0 -4 4 -3 8 3 5 9 11 8 20 -2
11 -12 9 -14 -11 -14 -19 0 -25 -8 -35 -45 -7 -25 -12 -51 -12 -59 0 -17 22
-26 48 -19 23 6 39 52 22 63 -7 5 -6 11 5 20 8 7 15 19 15 27 0 24 41 96 66
116 37 29 11 46 -46 31z m2 -51 c-3 -16 -11 -23 -26 -22 -17 1 -17 2 -3 6 9 2
17 9 17 14 0 6 -4 7 -10 4 -10 -6 -14 7 -5 17 14 14 31 3 27 -19z"/>
<path d="M1597 1055 c-4 -8 -3 -16 1 -19 13 -8 35 11 28 23 -10 15 -23 14 -29
-4z"/>
<path d="M3270 1035 c-9 -10 -9 -15 -1 -15 6 0 11 5 11 11 0 5 5 7 10 4 6 -3
10 -1 10 4 0 16 -16 13 -30 -4z"/>
<path d="M861 1003 c-14 -10 -14 -14 7 -33 23 -22 29 -40 12 -40 -5 0 -7 -7
-4 -15 4 -8 10 -15 16 -15 5 0 6 5 3 10 -4 6 3 25 14 44 29 46 27 66 -5 64
-15 -2 -34 -8 -43 -15z"/>
<path d="M1610 996 c0 -8 5 -18 10 -21 6 -3 10 1 10 9 0 8 -4 18 -10 21 -5 3
-10 -1 -10 -9z"/>
<path d="M324 984 c3 -9 6 -18 6 -20 0 -3 8 0 19 5 10 6 21 7 25 4 3 -3 6 -2
6 4 0 6 -10 13 -22 17 -35 9 -41 7 -34 -10z"/>
<path d="M1256 968 c6 -19 4 -21 -7 -11 -9 7 -20 8 -28 4 -11 -7 -10 -11 5
-19 11 -5 25 -7 32 -5 15 6 16 53 1 53 -6 0 -8 -9 -3 -22z"/>
<path d="M2238 983 c7 -3 16 -2 19 1 4 3 -2 6 -13 5 -11 0 -14 -3 -6 -6z"/>
<path d="M3405 980 c3 -5 8 -10 11 -10 2 0 4 5 4 10 0 6 -5 10 -11 10 -5 0 -7
-4 -4 -10z"/>
<path d="M3430 978 c0 -5 6 -8 13 -8 9 0 9 -2 -1 -9 -10 -6 0 -17 37 -40 28
-17 55 -31 59 -31 4 0 0 5 -8 10 -8 5 -10 10 -5 10 15 0 37 -16 36 -26 -2 -13
146 -87 158 -79 20 11 13 38 -8 32 -14 -3 -18 -1 -14 9 3 8 10 11 17 7 6 -4
-2 7 -19 24 -16 17 -31 27 -33 22 -6 -15 -22 -10 -22 6 0 20 -58 48 -97 47
-22 -1 -33 4 -36 16 -4 15 -5 15 -6 -1 0 -10 -7 -17 -13 -14 -7 2 -13 10 -12
18 1 8 -9 14 -23 14 -12 0 -23 -3 -23 -7z"/>
<path d="M855 950 c3 -5 11 -10 16 -10 6 0 7 5 4 10 -3 6 -11 10 -16 10 -6 0
-7 -4 -4 -10z"/>
<path d="M358 943 c7 -3 16 -2 19 1 4 3 -2 6 -13 5 -11 0 -14 -3 -6 -6z"/>
<path d="M843 923 c4 -3 2 -12 -5 -20 -8 -10 -8 -17 -1 -24 8 -8 13 -7 17 0 4
6 2 11 -5 11 -10 0 -10 3 -1 12 15 15 15 28 0 28 -6 0 -8 -3 -5 -7z"/>
<path d="M1240 916 c0 -2 7 -6 15 -10 8 -3 15 -1 15 4 0 6 -7 10 -15 10 -8 0
-15 -2 -15 -4z"/>
<path d="M1255 870 c-3 -5 -1 -10 4 -10 6 0 11 5 11 10 0 6 -2 10 -4 10 -3 0
-8 -4 -11 -10z"/>
<path d="M817 853 c-15 -14 -6 -30 16 -28 31 3 31 3 17 20 -14 16 -23 19 -33
8z"/>
<path d="M2240 844 c0 -8 6 -11 15 -8 8 4 15 9 15 13 0 4 -7 8 -15 8 -8 0 -15
-6 -15 -13z"/>
<path d="M1223 813 c9 -2 23 -2 30 0 6 3 -1 5 -18 5 -16 0 -22 -2 -12 -5z"/>
<path d="M2410 811 c-21 -6 -25 -14 -28 -48 -1 -23 2 -44 8 -48 5 -3 10 1 10
10 0 9 5 13 10 10 6 -3 10 -1 10 4 0 6 7 11 15 11 10 0 15 11 15 35 0 19 -3
35 -7 34 -5 -1 -19 -4 -33 -8z"/>
<path d="M717 768 c-22 -10 -53 -18 -71 -18 -17 0 -37 -4 -45 -9 -9 -6 1 -9
30 -8 24 1 67 -2 95 -6 50 -7 50 -7 66 27 l17 34 -27 -2 c-14 0 -43 -9 -65
-18z"/>
<path d="M340 754 c0 -8 5 -12 10 -9 6 4 8 11 5 16 -9 14 -15 11 -15 -7z"/>
<path d="M2858 763 c12 -2 30 -2 40 0 9 3 -1 5 -23 4 -22 0 -30 -2 -17 -4z"/>
<path d="M3010 761 c0 -5 -17 -7 -37 -5 -21 1 -29 0 -18 -3 11 -3 22 -8 25
-12 3 -3 19 -14 36 -23 31 -17 33 -17 55 2 l24 20 -22 6 c-13 3 -23 10 -23 15
0 5 -9 9 -20 9 -11 0 -20 -4 -20 -9z"/>
<path d="M3080 761 c0 -19 20 -22 42 -7 22 16 22 16 -10 16 -17 0 -32 -4 -32
-9z"/>
<path d="M464 739 c-2 -3 23 -7 56 -8 33 0 60 3 60 8 0 10 -109 10 -116 0z"/>
<path d="M2255 740 c-3 -5 1 -10 9 -10 9 0 16 5 16 10 0 6 -4 10 -9 10 -6 0
-13 -4 -16 -10z"/>
<path d="M2424 725 c-16 -12 -17 -14 -3 -15 9 0 19 7 23 15 7 19 5 19 -20 0z"/>
<path d="M2260 709 c0 -5 5 -7 10 -4 6 3 10 8 10 11 0 2 -4 4 -10 4 -5 0 -10
-5 -10 -11z"/>
<path d="M2240 680 c0 -5 4 -10 9 -10 6 0 13 5 16 10 3 6 -1 10 -9 10 -9 0
-16 -4 -16 -10z"/>
<path d="M3735 643 c-21 -12 -26 -18 -15 -21 8 -3 18 -9 21 -15 4 -5 12 -6 18
-2 9 5 9 10 1 20 -8 10 -8 15 1 21 8 4 9 3 5 -4 -4 -7 -2 -12 3 -12 6 0 11 7
11 15 0 19 -7 18 -45 -2z"/>
<path d="M2255 640 c3 -5 8 -10 11 -10 2 0 4 5 4 10 0 6 -5 10 -11 10 -5 0 -7
-4 -4 -10z"/>
<path d="M2155 611 c-9 -18 -11 -31 -5 -31 11 0 34 50 26 57 -2 3 -12 -9 -21
-26z"/>
<path d="M3029 623 c-1 -5 -1 -12 0 -16 1 -5 -8 -21 -19 -37 -11 -16 -16 -31
-11 -34 11 -7 34 20 37 42 1 10 5 25 9 35 4 10 3 17 -4 17 -6 0 -12 -3 -12 -7z"/>
<path d="M335 600 c3 -5 10 -10 16 -10 5 0 9 5 9 10 0 6 -7 10 -16 10 -8 0
-12 -4 -9 -10z"/>
<path d="M888 593 c18 -7 15 -20 -8 -26 -32 -8 -23 -25 15 -33 20 -3 38 -4 41
-2 2 3 -1 19 -7 36 -8 23 -17 32 -32 31 -12 0 -16 -3 -9 -6z"/>
<path d="M2232 572 c-12 -16 -19 -32 -15 -36 3 -3 0 -6 -7 -6 -9 0 -7 -5 6
-14 22 -17 41 -6 55 33 7 18 6 28 -4 39 -12 12 -17 10 -35 -16z"/>
<path d="M3225 589 c-4 -6 -5 -12 -2 -15 2 -3 7 2 10 11 7 17 1 20 -8 4z"/>
<path d="M1240 580 c-12 -7 -10 -9 8 -7 12 0 22 5 22 9 0 11 -12 10 -30 -2z"/>
<path d="M3748 582 c-38 -4 -40 -42 -3 -42 24 0 41 19 33 37 -1 4 -15 7 -30 5z"/>
<path d="M360 565 c-14 -16 -3 -20 19 -6 8 5 9 11 3 15 -5 3 -15 -1 -22 -9z"/>
<path d="M815 570 c-3 -5 -1 -10 4 -10 6 0 11 5 11 10 0 6 -2 10 -4 10 -3 0
-8 -4 -11 -10z"/>
<path d="M1617 563 c-11 -10 -8 -55 2 -49 5 4 12 0 14 -6 3 -7 6 4 6 25 1 35
-7 46 -22 30z"/>
<path d="M341 531 c-26 -16 -22 -41 6 -39 30 3 50 33 27 42 -19 7 -16 8 -33
-3z"/>
<path d="M3733 522 c-17 -2 -26 -15 -35 -45 -15 -49 -101 -143 -106 -116 -2
13 -12 15 -47 12 -39 -5 -79 4 -147 32 -13 5 -18 2 -18 -9 0 -11 9 -16 28 -16
15 0 45 -9 67 -20 46 -24 124 -26 163 -6 43 23 106 97 125 148 7 20 0 25 -30
20z"/>
<path d="M1250 510 c-13 -8 -12 -10 3 -10 9 0 17 5 17 10 0 12 -1 12 -20 0z"/>
<path d="M2991 484 c0 -11 3 -14 6 -6 3 7 2 16 -1 19 -3 4 -6 -2 -5 -13z"/>
<path d="M1591 451 c-13 -21 -36 -43 -50 -49 -26 -10 -26 -11 4 -5 17 3 32 10
33 15 2 4 9 5 14 2 7 -4 8 -2 4 4 -5 8 1 12 14 12 12 0 19 4 16 9 -4 5 0 11 6
14 10 3 9 8 -2 21 -14 14 -18 12 -39 -23z"/>
<path d="M1224 457 c-3 -10 -23 -29 -44 -43 -41 -27 -59 -54 -35 -54 7 0 17 4
20 10 3 5 31 22 61 36 43 20 54 30 54 50 0 19 -5 23 -25 22 -14 -1 -28 -10
-31 -21z"/>
<path d="M360 460 c0 -6 -4 -9 -8 -6 -16 9 -50 -24 -57 -54 -7 -31 -20 -42
-90 -73 l-40 -17 35 6 c55 9 100 25 100 35 0 5 7 9 16 9 8 0 12 4 9 10 -3 5 0
7 9 4 22 -9 58 33 54 63 -3 26 -28 46 -28 23z"/>
<path d="M3010 416 c0 -22 -5 -26 -27 -26 -16 0 -35 -5 -43 -10 -11 -7 -8 -10
15 -9 30 0 102 27 78 28 -7 1 -13 6 -13 11 0 6 6 10 14 8 8 -2 16 2 18 7 2 6
-7 11 -19 13 -19 3 -23 -1 -23 -22z"/>
<path d="M2695 420 c-3 -5 -1 -10 4 -10 6 0 11 5 11 10 0 6 -2 10 -4 10 -3 0
-8 -4 -11 -10z"/>
<path d="M3324 418 c-4 -6 1 -17 11 -24 23 -17 26 -14 18 14 -6 24 -18 28 -29
10z"/>
<path d="M2720 411 c0 -9 75 -31 104 -31 9 0 16 5 16 10 0 6 -12 8 -27 4 -19
-4 -24 -3 -15 4 11 7 8 11 -9 15 -13 4 -26 1 -30 -4 -5 -8 -9 -8 -13 0 -8 13
-26 15 -26 2z"/>
<path d="M3254 395 c-9 -22 1 -29 15 -11 8 10 9 16 1 21 -5 3 -13 -1 -16 -10z"/>
<path d="M2850 385 c0 -11 10 -15 36 -15 22 0 33 4 29 11 -4 5 -12 8 -18 6 -7
-2 -20 0 -29 5 -13 6 -18 5 -18 -7z"/>
<path d="M1215 320 c-18 -19 -18 -20 3 -20 25 0 34 11 23 28 -5 9 -12 7 -26
-8z"/>
<path d="M498 323 c7 -3 16 -2 19 1 4 3 -2 6 -13 5 -11 0 -14 -3 -6 -6z"/>
<path d="M1260 310 c0 -5 4 -10 9 -10 6 0 13 5 16 10 3 6 -1 10 -9 10 -9 0
-16 -4 -16 -10z"/>
<path d="M1305 300 c-3 -5 -1 -10 4 -10 6 0 11 5 11 10 0 6 -2 10 -4 10 -3 0
-8 -4 -11 -10z"/>
<path d="M1345 290 c3 -6 20 -8 38 -5 47 9 46 15 -2 15 -26 0 -40 -4 -36 -10z"/>
<path d="M2148 195 c-2 -2 -66 -6 -143 -9 -77 -4 -185 -11 -240 -16 -55 -5
-154 -10 -220 -10 -66 -1 -154 -5 -195 -10 -48 -5 21 -6 195 -3 149 3 358 6
467 8 108 1 201 5 206 9 6 3 77 1 158 -4 178 -12 245 -7 263 22 13 20 11 21
-41 14 -74 -9 -82 -11 -97 -21 -9 -5 -12 -4 -8 2 4 7 -13 13 -46 17 -52 6
-292 7 -299 1z"/>
<path d="M2666 171 c-4 -7 -5 -15 -2 -18 9 -9 19 4 14 18 -4 11 -6 11 -12 0z"/>
<path d="M3475 162 c-7 -7 -233 -14 -472 -15 -208 0 -259 -6 -197 -21 14 -4
238 -6 499 -5 374 1 475 4 479 14 3 8 -6 16 -22 20 -30 8 -279 14 -287 7z"/>
<path d="M2696 151 c15 -15 66 -17 71 -3 3 8 -8 12 -38 12 -27 0 -39 -4 -33
-9z"/>
<path d="M484 138 c-3 -5 41 -7 98 -7 113 2 107 6 -15 11 -43 2 -81 0 -83 -4z"/>
<path d="M188 133 c7 -3 16 -2 19 1 4 3 -2 6 -13 5 -11 0 -14 -3 -6 -6z"/>
<path d="M735 130 l-50 -7 53 -1 c29 -1 52 2 52 8 0 6 -1 9 -2 8 -2 0 -25 -4
-53 -8z"/>
<path d="M932 132 c-7 -5 25 -7 70 -4 46 2 85 6 87 8 8 8 -144 3 -157 -4z"/>
<path d="M1128 133 c17 -2 47 -2 65 0 17 2 3 4 -33 4 -36 0 -50 -2 -32 -4z"/>
<path d="M823 123 c15 -2 39 -2 55 0 15 2 2 4 -28 4 -30 0 -43 -2 -27 -4z"/>
</g>
</svg>
